# xmcd CD database file
#
# Track frame offsets:
#	150
#	32645
#	62300
#	90880
#	115930
#	137525
#	162235
#	180155
#	213705
#	250100
#	278720
#	293120
#
# Disc length: 4266 seconds
#
# Revision: 0
# Processed by: cddbd v1.4PL0 Copyright (c) Steve Scherf et al.
# Submitted via: CDex 1.50
#
DISCID=9910a80c
DTITLE=Anatoly Kroll's MKC Big Band - Киллер Джо
DYEAR=1996
DGENRE=Jazz
TTITLE0=I Got Rhythm (G. Gershwin)
TTITLE1=Killer Joe (B. Golson)
TTITLE2=Take The "A" Trane (B. Streinhorn)
TTITLE3=El Encuentro (M. Clung)
TTITLE4=Giant Steps (J. Coltrane)
TTITLE5=Down Home (P. Peterson)
TTITLE6=Speak Low (K. Weil)
TTITLE7=A Long Time Ago (B. Mintzer)
TTITLE8=Dolphin Dance (H. Hancock)
TTITLE9=Some Other Time (L. Bernstain)
TTITLE10=What Kind Of Fool Am I (L. Brikas)
TTITLE11=St. Tomas (S. Rolling)
EXTD=YEAR: 1996
EXTT0=
EXTT1=
EXTT2=
EXTT3=
EXTT4=
EXTT5=
EXTT6=
EXTT7=
EXTT8=
EXTT9=
EXTT10=
EXTT11=
PLAYORDER=
